<?xml version="1.0" standalone="no"?>
<!DOCTYPE svg PUBLIC "-//W3C//DTD SVG 20010904//EN"
 "http://www.w3.org/TR/2001/REC-SVG-20010904/DTD/svg10.dtd">
<svg version="1.0" xmlns="http://www.w3.org/2000/svg"
 width="100.000000pt" height="100.000000pt" viewBox="0 0 100.000000 100.000000"
 preserveAspectRatio="xMidYMid meet">

<g transform="translate(0.000000,100.000000) scale(0.100000,-0.100000)"
fill="#000000" stroke="none">
<path d="M376 904 c-130 -32 -250 -127 -304 -241 -23 -49 -27 -72 -27 -143 0
-76 4 -93 33 -152 21 -44 51 -84 88 -117 l56 -51 -12 -37 c-7 -21 -23 -55 -36
-75 -13 -21 -24 -40 -24 -43 0 -9 63 -5 102 5 20 6 60 26 87 44 49 33 53 34
128 29 197 -13 384 90 461 254 23 49 27 72 27 143 0 71 -4 94 -27 143 -90 192
-327 296 -552 241z m237 -39 c82 -21 152 -59 204 -111 133 -134 133 -335 -2
-469 -89 -90 -246 -139 -380 -119 -63 10 -66 9 -91 -17 -28 -29 -100 -66 -110
-56 -4 3 1 24 10 47 20 51 20 87 0 98 -39 22 -110 102 -133 152 -37 78 -37
182 1 262 80 171 301 265 501 213z"/>
</g>
</svg>
