<?xml version="1.0" standalone="no"?>
<!DOCTYPE svg PUBLIC "-//W3C//DTD SVG 20010904//EN"
 "http://www.w3.org/TR/2001/REC-SVG-20010904/DTD/svg10.dtd">
<svg version="1.0" xmlns="http://www.w3.org/2000/svg"
 width="100.000000pt" height="100.000000pt" viewBox="0 0 100.000000 100.000000"
 preserveAspectRatio="xMidYMid meet">

<g transform="translate(0.000000,100.000000) scale(0.100000,-0.100000)"
fill="#000000" stroke="none">
<path d="M447 933 c-4 -3 -7 -43 -8 -87 0 -76 -3 -86 -48 -175 -38 -75 -49
-90 -53 -73 -6 21 -11 22 -146 22 -78 0 -143 -4 -147 -9 -6 -10 52 -488 61
-503 3 -4 55 -8 116 -8 101 0 110 2 115 20 7 25 18 25 43 0 19 -19 33 -20 235
-20 l216 0 25 26 c21 20 25 33 22 61 -3 28 1 41 20 60 20 21 24 31 19 65 -4
28 -1 49 10 65 10 16 14 35 10 61 -4 24 -1 43 8 56 23 30 18 74 -10 101 -24
24 -28 25 -185 25 -88 0 -160 3 -160 6 0 3 7 31 16 61 11 36 14 72 10 101 -7
51 -47 127 -76 142 -21 11 -83 14 -93 3z m92 -59 c40 -51 47 -96 25 -182 -10
-42 -19 -84 -19 -92 0 -13 29 -16 179 -20 156 -4 180 -7 190 -22 15 -25 -3
-52 -39 -58 -38 -7 -43 -27 -11 -40 51 -19 45 -70 -9 -80 -38 -7 -43 -27 -11
-40 56 -21 43 -72 -20 -80 -45 -6 -51 -25 -14 -43 29 -14 37 -41 20 -62 -10
-12 -50 -15 -216 -15 -193 0 -204 1 -214 20 -6 12 -21 20 -35 20 l-25 0 0 169
c0 139 3 170 15 175 8 3 39 55 70 115 52 105 55 115 55 186 0 67 2 75 19 75
11 0 29 -12 40 -26z m-239 -514 l0 -220 -80 0 c-94 0 -81 -26 -110 220 -11 96
-23 185 -26 198 -4 22 -3 22 106 22 l110 0 0 -220z"/>
<path d="M204 226 c-10 -26 4 -48 28 -44 17 2 23 10 23 28 0 18 -6 26 -23 28
-13 2 -25 -3 -28 -12z"/>
</g>
</svg>
