<?xml version="1.0" standalone="no"?>
<!DOCTYPE svg PUBLIC "-//W3C//DTD SVG 20010904//EN"
 "http://www.w3.org/TR/2001/REC-SVG-20010904/DTD/svg10.dtd">
<svg version="1.0" xmlns="http://www.w3.org/2000/svg"
 width="90.000000pt" height="90.000000pt" viewBox="0 0 90.000000 90.000000"
 preserveAspectRatio="xMidYMid meet">

<g transform="translate(0.000000,90.000000) scale(0.100000,-0.100000)"
fill="#000000" stroke="none">
<path d="M347 800 c-110 -28 -214 -108 -259 -198 -18 -36 -23 -64 -23 -122 0
-91 24 -146 91 -213 44 -43 46 -47 39 -86 -5 -28 -17 -51 -41 -73 -40 -38 -42
-48 -10 -48 38 0 88 21 141 58 49 35 51 36 160 37 89 1 121 6 165 24 211 87
291 299 174 468 -39 57 -114 114 -184 139 -54 19 -200 27 -253 14z m-37 -280
c11 -11 20 -29 20 -40 0 -26 -34 -60 -60 -60 -26 0 -60 34 -60 60 0 11 9 29
20 40 11 11 29 20 40 20 11 0 29 -9 40 -20z m180 0 c11 -11 20 -29 20 -40 0
-26 -34 -60 -60 -60 -11 0 -29 9 -40 20 -11 11 -20 29 -20 40 0 11 9 29 20 40
11 11 29 20 40 20 11 0 29 -9 40 -20z m180 0 c11 -11 20 -29 20 -40 0 -26 -34
-60 -60 -60 -11 0 -29 9 -40 20 -11 11 -20 29 -20 40 0 11 9 29 20 40 11 11
29 20 40 20 11 0 29 -9 40 -20z"/>
</g>
</svg>
