<?xml version="1.0" standalone="no"?>
<!DOCTYPE svg PUBLIC "-//W3C//DTD SVG 20010904//EN"
 "http://www.w3.org/TR/2001/REC-SVG-20010904/DTD/svg10.dtd">
<svg version="1.0" xmlns="http://www.w3.org/2000/svg"
 width="90.000000pt" height="90.000000pt" viewBox="0 0 90.000000 90.000000"
 preserveAspectRatio="xMidYMid meet">

<g transform="translate(0.000000,90.000000) scale(0.100000,-0.100000)"
fill="#000000" stroke="none">
<path d="M265 698 c-123 -102 -170 -146 -170 -162 0 -16 7 -22 28 -24 l27 -3
0 -175 c0 -161 2 -176 20 -194 19 -19 33 -20 280 -20 247 0 261 1 280 20 18
18 20 33 20 194 l0 175 28 3 c50 6 40 39 -27 92 l-60 47 -3 77 -3 77 -40 0
c-39 0 -40 -1 -45 -38 l-5 -38 -67 56 c-36 30 -72 55 -80 54 -7 0 -89 -63
-183 -141z m275 -398 l0 -120 -90 0 -90 0 0 120 0 120 90 0 90 0 0 -120z"/>
</g>
</svg>
